<svg id="Capa_1" data-name="Capa 1" xmlns="http://www.w3.org/2000/svg" viewBox="0 0 45.87 45.52"><defs><style>.cls-1{fill:none;stroke:#438ccb;stroke-linecap:round;stroke-linejoin:round;stroke-width:2px;}</style></defs><polygon class="cls-1" points="3.81 24.14 43.01 24.14 39.2 41.54 8.05 41.54 3.81 24.14"/><line class="cls-1" x1="10.13" y1="37.82" x2="23.02" y2="37.82"/><path class="cls-1" d="M23,28.82S37.38,36.69,42.4,37.3"/><polyline class="cls-1" points="37.21 24.14 37.21 12.63 33.23 8.48 33.23 2.86 27 2.86 27 8.57 23.02 12.72 23.02 24.14"/><path class="cls-1" d="M20.77,24.14,15.5,12.76a5.42,5.42,0,0,0-2.73-2.69,5.76,5.76,0,0,0-4.49-.26,5,5,0,0,0-2.56,6,7.92,7.92,0,0,0,.64,1.7l3.33,6.6"/></svg>