<svg id="Capa_1" data-name="Capa 1" xmlns="http://www.w3.org/2000/svg" viewBox="0 0 62.01 61.15"><defs><style>.cls-1,.cls-2{fill:#0864ee;}.cls-2{stroke:#0864ee;}.cls-2,.cls-3{stroke-linecap:round;stroke-linejoin:round;}.cls-3,.cls-5{fill:#458bca;}.cls-3{stroke:#448bca;stroke-width:2px;}.cls-4,.cls-7{fill:#fff;}.cls-6{fill:#448bca;}.cls-7{font-size:16.99px;font-family:ProximaNova-Medium, Proxima Nova;font-weight:500;}</style></defs><path class="cls-1" d="M59.77,15.14V35.88H55.5L35.64,50.43a7.05,7.05,0,0,1-9-.59l-12-11.45a5.43,5.43,0,0,1-.07-7.8l17.29-17a5.32,5.32,0,0,1,7-.39l2.72,2.15Z"/><path class="cls-2" d="M59.77,15.14V35.88H55.5L35.64,50.43a7.05,7.05,0,0,1-9-.59l-12-11.45a5.43,5.43,0,0,1-.07-7.8L30.27,13.23c1.91-1.88,4.91-4.22,7-2.57l6.55,4.67Z"/><rect class="cls-3" x="5.87" y="14.78" width="48.1" height="31.6" rx="2.31" transform="translate(30.39 -12.2) rotate(45)"/><rect class="cls-4" x="16.02" y="9.83" width="27.68" height="41.36" transform="translate(-12.83 30.05) rotate(-45)"/><rect class="cls-4" x="16.02" y="9.83" width="27.68" height="41.36" transform="translate(-12.83 30.05) rotate(-45)"/><path class="cls-1" d="M40.8,14.05l-5.25,3.4-4.31-6.2S33.41,8.9,38.52,11"/><path class="cls-1" d="M35.86,17.34s4.2-1.63,6.87.56S40,14.14,40,14.14Z"/><path class="cls-1" d="M36.72,17c-.11.09-1.2.55-1.34.66C33.17,19.28,27.59,22.7,23,19.19A.74.74,0,0,1,23,18l8.28-6.78a.75.75,0,0,1,1.08.14l3.6,4.9C36.16,16.62,37,16.72,36.72,17Z"/><circle class="cls-5" cx="30.27" cy="30.93" r="8.24"/><rect class="cls-6" x="3.71" y="21.63" width="8.16" height="8.16" rx="2.2" transform="translate(-15.89 13.03) rotate(-45)"/><rect class="cls-6" x="20.88" y="4.62" width="8.16" height="8.16" rx="2.2" transform="translate(1.16 20.2) rotate(-45)"/><rect class="cls-6" x="30.64" y="48.36" width="8.16" height="8.16" rx="2.2" transform="translate(-26.91 39.9) rotate(-45)"/><rect class="cls-6" x="47.81" y="31.35" width="8.16" height="8.16" rx="2.2" transform="translate(-9.86 47.06) rotate(-45)"/><rect class="cls-2" x="9.31" y="30.48" width="11.21" height="6.18" rx="2.28" transform="translate(-17.29 15.91) rotate(-37.31)"/><rect class="cls-2" x="19.36" y="40.53" width="11.21" height="6.18" rx="2.28" transform="translate(-21.33 24.06) rotate(-37.31)"/><rect class="cls-2" x="24.43" y="45.6" width="11.21" height="6.18" rx="2.28" transform="translate(-23.36 28.17) rotate(-37.31)"/><text class="cls-7" transform="translate(37.58 30.58) rotate(-135)">$</text><rect class="cls-2" x="14.26" y="35.43" width="11.21" height="6.18" rx="2.28" transform="translate(-19.28 19.92) rotate(-37.31)"/></svg>