<svg id="Capa_1" data-name="Capa 1" xmlns="http://www.w3.org/2000/svg" viewBox="0 0 772.62 210.79"><defs><style>.cls-1{fill:#1d4b6d;}.cls-2{fill:#2d3277;}.cls-3{fill:#00b1ea;}.cls-4,.cls-5{fill:#fff;}.cls-5{font-size:101.03px;font-family:HarabaraMaisBold-HarabaraMaisBold, Harabara Mais Demo;font-weight:700;}</style></defs><path class="cls-1" d="M328.42,53.36V87.62H314.74V56.1c0-15.3,7.7-22.9,23-22.9,6.9,0,12.17,1.52,16,4.56,3.85-2.94,9.12-4.36,16-4.36,15.3,0,22.9,7.6,22.8,22.9V87.82h-7c-4.46-.3-6.69-2.43-6.69-6.69V53.57c-.31-5.58-3.35-8.31-9.32-8.31s-9,2.73-9.13,8.31V87.62H346.87V53.36c-.31-5.57-3.35-8.31-9.33-8.31S328.52,47.79,328.42,53.36Z"/><path class="cls-1" d="M425.61,33.2c-16.32.1-24.52,9.22-24.52,27.46s8.1,27.67,24.32,28.17c13.17,0,20.46-6.28,23.41-17.63H435.7a6,6,0,0,1-1.82,2.34l-.07.06a12.17,12.17,0,0,1-8.2,3.37C419,77,415.47,72.82,415,64.61h34.66Q451.15,33.16,425.61,33.2ZM415.17,55c1-7.09,4.46-10.73,10.24-10.73s9.12,3.64,9.92,10.73Z"/><path class="cls-1" d="M457,60C457.43,42.62,466.65,34,484.59,34h1.92V48H482c-7.5,0-11.24,4-11.24,11.76V87.62H457Z"/><path class="cls-1" d="M538.58,78.28a22.57,22.57,0,0,0,1.2-2.92C539.46,76.25,539.07,77.23,538.58,78.28Z"/><path class="cls-1" d="M541.08,50.63a5.34,5.34,0,0,1-.12,2.22H526.54a4.89,4.89,0,0,0-.46-3.15l0-.08c-1.67-3-4.36-4.57-8.21-4.57-7.09,0-10.64,5.37-10.64,16s3.75,16,11.25,15.9a10.37,10.37,0,0,0,2.75-.36c1.41-.53,4.9-2.47,5-8.53h14.58a7.77,7.77,0,0,1,0,3h0a29.08,29.08,0,0,1-1,4.16.36.36,0,0,0,0,.11c-.32.89-.71,1.87-1.2,2.92-3.58,7.28-10.46,10.79-20.14,10.55-16.22,0-24.53-9.32-24.94-27.76,0-18.35,8.22-27.57,24.73-27.87,13,0,20.68,5.77,23,17.43Z"/><path class="cls-1" d="M563.33,48H549.85c1.63-9.93,8.62-14.79,21-14.79,14.8,0,22.3,4.86,22.6,14.79V66.23c0,14.8-8.92,21.39-23.41,22.4-12.87,1-21.79-5-21.79-16.82.31-12.87,9.63-16.32,23.21-17.64,5.78-.7,8.71-2.43,8.71-5.37-.3-3-3.14-4.56-8.71-4.56C566.68,44.24,564,45.46,563.33,48Zm17,17.64v-5a58.12,58.12,0,0,1-10.74,3.24c-5.38,1-8.11,3.55-8.11,7.5.3,4.26,2.53,6.29,6.79,6.29C575.8,77.69,580.36,73.23,580.36,65.63Z"/><path class="cls-1" d="M637.11,26.27v.62a5.42,5.42,0,0,1,0-.62Z"/><path class="cls-1" d="M637.16,26.27a5.42,5.42,0,0,0,0,.62V41.51c-3.45-5.57-8.62-8.31-15.3-8.31-14.29.51-21.39,9.82-21.39,28.07,0,17.84,8.31,26.85,24.93,27.16q25.1.15,25.13-24V26.89h0v-7.8C639.27,18.15,637.46,24.27,637.16,26.27ZM625.56,77c-7.71,0-11.36-5.47-11.25-16.31.4-10.34,4.15-15.4,11.45-15.4s11,5.06,11.35,15.4C637.11,71.5,633.26,77,625.56,77Z"/><path class="cls-1" d="M706,61.07c0,18.44-8.21,27.76-24.42,27.76s-24.32-9.32-24.32-27.76c0-18.65,8.1-27.87,24.32-27.87S706,42.42,706,61.07Zm-35.06,0c.1,10.43,3.65,15.7,10.54,15.7s10.33-5.47,10.43-16.11c0-10.44-3.44-15.61-10.33-15.61C674.5,45.05,671,50.43,671,61.07Z"/><path class="cls-1" d="M452.21,102.6v68.84H438.73v-61S438.73,101.46,452.21,102.6Z"/><rect class="cls-1" x="462.94" y="117.82" width="13.49" height="53.61"/><path class="cls-1" d="M476.55,102.56v10.53H463.08v0h-.14V102.52h7a8,8,0,0,1,.86,0Z"/><path class="cls-1" d="M513.82,117c-6.69,0-11.76,2.73-15.2,8.31V102.62c-13.48-1.13-13.48,7.84-13.48,7.84v37.77c0,16.11,8.41,24.12,25.13,24,16.62-.3,24.94-9.32,24.94-27.15C535.21,126.84,528.11,117.52,513.82,117Zm-4,43.77c-7.7,0-11.35-5.47-11.25-16.31.41-10.34,4.15-15.41,11.45-15.41s11.05,5.07,11.35,15.41C521.42,155.32,517.57,160.79,509.87,160.79Z"/><path class="cls-1" d="M542.4,143.77c.4-17.33,9.63-25.94,27.56-25.94h1.93v14h-4.56c-7.5,0-11.25,3.95-11.25,11.76v27.87H542.4Z"/><path class="cls-1" d="M603.41,117c-16.32.09-24.53,9.22-24.53,27.46s8.11,27.66,24.33,28.17c13.17,0,20.47-6.28,23.4-17.63h-13.1a6.09,6.09,0,0,1-1.83,2.33l0,.06a12.23,12.23,0,0,1-8.22,3.38c-6.59,0-10.14-4.15-10.65-12.36h34.67C628.44,127.45,620.43,117,603.41,117ZM593,138.8c1-7.09,4.46-10.74,10.24-10.74s9.12,3.65,9.93,10.74Z"/><path class="cls-1" d="M540.85,71.09a20.67,20.67,0,0,1-1,4.16A29.08,29.08,0,0,0,540.85,71.09Z"/><path class="cls-2" d="M273.93,105.73c1.4-46.26-50.46-82.68-112.7-82.68S47.56,57.62,48.54,105.73c.93,45.65,43.79,82.57,112.69,82.67C228.48,188.5,272.55,151.37,273.93,105.73Z"/><path class="cls-3" d="M269.24,101.21c1.24-41.85-48.47-73-108.25-73.64-58.16-.64-108.78,31.55-108.78,73.64,0,40.67,45.95,73.56,108.78,73.64C225.58,174.93,268,141.87,269.24,101.21Z"/><path class="cls-2" d="M53.37,97.46s26.82-6.92,68.18,12.41c0,0-2.07-18.5-1-30s-6.33-26.28-6.33-26.28a19.29,19.29,0,0,1-13.46-1.81,27.45,27.45,0,0,0-13.26-4.1A7.39,7.39,0,0,1,81.19,44s-3.62-7.28,4.4-8.34c0,0-3.11-4.36.35-8.06l13.53-9.94A6,6,0,0,1,107.25,19c3.44,4,10,10.12,10,10.12s13.27,12.54,15.86,20.32L148.26,83.8s12.4,30.33,13.14,34.31c0,0,3.41,14.57-4.54,19.33,0,0-4.26,3.23-14.81,3.42,0,0-21.33,2.85-34.61,1.55s-24.26-3.18-24.26-3.18-9.67-3.11-11.58-2a9.32,9.32,0,0,0-2.54,2l-7,5.41s-14.16-18.63-12.2-47Z"/><path class="cls-4" d="M103.78,43.14l3.52,3.61s3.37,1.36,3.06-.43c0,0-8.79-8-9.27-11.22,0,0,.87-3.84,1.74-4.39,0,0-2.9,1.43-3.79,3,0,0-1.17.6-2.07-2.23l-.65-2.44-.45,5-2.59,0s2.23.56,2.33,1a7.38,7.38,0,0,1-.21,1.75s1.83-2,3.18-1.77c0,0,2,1.7,1.5,3.25s-5.58,1.92-5.58,1.92-6.58-3.27-7.62-8c0,0-1.45-2.29,9.86-8.84l4-2.56s1.51-1.6,4,1.66,12,13.13,12,13.13,9.06,8.25,11.77,15.4c0,0,16.33,36.46,19.21,45.81l8.08,20.75s6.35,15.77-6.69,18.54-33.87,2.42-33.87,2.42-24.57-.92-31.15-2.54l-9.2-2a8.38,8.38,0,0,0-9.39,2.47s-14.24-13.81-12.77-34.83c0,0,11.77-2.43,29.17.08s44.74,15.15,44.74,15.15-3.09-7.13-3-10.65c0,0-1.76-19.81-.67-24.37,0,0,.41-13.79-3.75-23.89,0,0-2.19-9.63-8.59-7.7A16.39,16.39,0,0,1,100,47.53s-3.37-1.82-12.92-3.26c0,0-4.36-.49-4.47-4s9.6,1,9.6,1a6,6,0,0,0,3.38,1.3,4.82,4.82,0,0,0,2.62-1.16A3.74,3.74,0,0,1,103.78,43.14Z"/><path class="cls-2" d="M268.09,97.46s-26.82-6.92-68.19,12.41c0,0,2.08-18.5,1-30s6.33-26.28,6.33-26.28a19.29,19.29,0,0,0,13.46-1.81A27.45,27.45,0,0,1,234,47.67a7.39,7.39,0,0,0,6.27-3.7s3.61-7.28-4.4-8.34c0,0,3.11-4.36-.35-8.06L222,17.63A6,6,0,0,0,214.21,19c-3.44,4-10,10.12-10,10.12S190.9,41.63,188.31,49.41L173.2,83.8s-12.4,30.33-13.14,34.31c0,0-3.41,14.57,4.53,19.33,0,0,4.27,3.23,14.82,3.42,0,0,21.33,2.85,34.61,1.55s24.26-3.18,24.26-3.18,9.67-3.11,11.58-2a9.32,9.32,0,0,1,2.54,2l7,5.41s14.16-18.63,12.2-47Z"/><path class="cls-4" d="M216.52,43.14,213,46.75s-3.38,1.36-3.06-.43c0,0,8.78-8,9.27-11.22,0,0-.88-3.84-1.74-4.39,0,0,2.9,1.43,3.78,3,0,0,1.17.6,2.07-2.23l.65-2.44.46,5,2.58,0s-2.22.56-2.32,1a6.89,6.89,0,0,0,.21,1.75s-1.84-2-3.19-1.77c0,0-2,1.7-1.49,3.25s5.58,1.92,5.58,1.92,6.57-3.27,7.61-8c0,0,1.45-2.29-9.86-8.84l-4-2.56s-1.5-1.6-4,1.66-12,13.13-12,13.13-9.06,8.25-11.77,15.4c0,0-16.32,36.46-19.21,45.81l-8.08,20.75s-6.34,15.77,6.7,18.54,33.86,2.42,33.86,2.42,24.58-.92,31.16-2.54l9.2-2a8.38,8.38,0,0,1,9.39,2.47s14.23-13.81,12.76-34.83c0,0-11.77-2.43-29.16.08s-44.74,15.15-44.74,15.15,3.08-7.13,3-10.65c0,0,1.76-19.81.66-24.37,0,0-.4-13.79,3.75-23.89,0,0,2.19-9.63,8.6-7.7a16.36,16.36,0,0,0,10.61-2.68s3.38-1.82,12.93-3.26c0,0,4.35-.49,4.47-4s-9.61,1-9.61,1-1.82,1.44-3.37,1.3a4.88,4.88,0,0,1-2.63-1.16A3.74,3.74,0,0,0,216.52,43.14Z"/><text class="cls-5" transform="translate(314.74 172.24)">no</text></svg>