<svg id="Capa_1" data-name="Capa 1" xmlns="http://www.w3.org/2000/svg" viewBox="0 0 41.71 45.52"><defs><style>.cls-1{fill:none;stroke:#438ccb;stroke-linecap:round;stroke-linejoin:round;stroke-width:2px;}.cls-2{fill:#438ccb;}</style></defs><path class="cls-1" d="M11.48,42.51H28.73a2.8,2.8,0,0,0,.86-.13c1.18-.39,4.15-1.77,5.77-6.2A17.16,17.16,0,0,0,34.07,21.7a16.33,16.33,0,0,0-5.63-5.79A16,16,0,0,0,13,15.17a15.33,15.33,0,0,0-6.67,6.49A16.87,16.87,0,0,0,6,37.25,13.24,13.24,0,0,0,9.9,42,3.12,3.12,0,0,0,11.48,42.51Z"/><path class="cls-1" d="M13.2,15.06S9.52,10.48,9.74,7.11s7.35-2.82,7.35-2.82l8.74,0s6.84.21,5.54,4.71a9.94,9.94,0,0,1-4.52,6.09"/><rect class="cls-1" x="14.63" y="2.2" width="11.77" height="4.11" rx="1.06"/><path class="cls-2" d="M13,30.54,11.91,31.8v3.91H10.12V23.82h1.79v5.9l5-5.9h2.21l-4.9,5.63,5.29,6.26H17.27Z"/><path class="cls-2" d="M25.89,23.62A5.59,5.59,0,0,1,30.6,26l-1.45.83a4.11,4.11,0,0,0-3.26-1.6,4.31,4.31,0,0,0-4.33,4.56,4.33,4.33,0,0,0,4.33,4.58,4.68,4.68,0,0,0,3-1.17V31H25.09V29.47h5.6v4.37a6.34,6.34,0,0,1-4.8,2.1,6,6,0,0,1-6.16-6.17A6,6,0,0,1,25.89,23.62Z"/></svg>